<?xml version="1.0" encoding="utf-8"?>
<!-- Generator: Adobe Illustrator 22.0.1, SVG Export Plug-In . SVG Version: 6.00 Build 0)  -->
<svg version="1.1" id="Calque_1" xmlns="http://www.w3.org/2000/svg" xmlns:xlink="http://www.w3.org/1999/xlink" x="0px" y="0px"
	 viewBox="0 0 40 40" style="enable-background:new 0 0 40 40;" xml:space="preserve">
<style type="text/css">
	.st0{fill:#F5F5F5;}
	.st1{fill:#BFDFEF;}
	.st2{fill:none;stroke:#646666;stroke-width:2;stroke-linecap:round;stroke-linejoin:round;stroke-miterlimit:10;}
</style>
<rect x="1956.4" y="-7389.4" class="st0" width="1319.5" height="147"/>
<rect x="833.5" y="-4687.8" class="st0" width="1319.5" height="147"/>
<path class="st1" d="M21.4,5.6c-7.3,0-13.2,5.9-13.2,13.2c0,3.6,1.5,6.9,3.9,9.3l8.6,8.6c0.4,0.4,1,0.4,1.5,0l8.6-8.6
	c2.4-2.4,3.9-5.6,3.9-9.3C34.5,11.5,28.6,5.6,21.4,5.6z"/>
<path class="st2" d="M20,2.3C11.6,2.3,4.8,9,4.8,17.4c0,4.1,1.7,8,4.4,10.7l9.9,9.9c0.5,0.5,1.2,0.5,1.7,0l9.9-9.9
	c2.8-2.8,4.4-6.5,4.4-10.7C35.1,9,28.3,2.3,20,2.3z"/>
<path class="st2" d="M20,11.3c3.4,0,6.1,2.8,6.1,6.1s-2.8,6.1-6.1,6.1s-6.1-2.8-6.1-6.1c0-1.3,0.4-2.5,1.1-3.5"/>
</svg>
