<?xml version="1.0" encoding="utf-8"?>
<!-- Generator: Adobe Illustrator 22.0.1, SVG Export Plug-In . SVG Version: 6.00 Build 0)  -->
<svg version="1.1" id="Calque_1" xmlns="http://www.w3.org/2000/svg" xmlns:xlink="http://www.w3.org/1999/xlink" x="0px" y="0px"
	 viewBox="0 0 48 48" style="enable-background:new 0 0 48 48;" xml:space="preserve">
<style type="text/css">
	.st0{fill:#F5F5F5;}
	.st1{fill:#CED2D6;}
	.st2{fill:#FFFFFF;}
	.st3{fill:none;stroke:#646666;stroke-width:2;stroke-linecap:round;stroke-linejoin:round;stroke-miterlimit:10;}
	.st4{fill:#646666;}
	.st5{fill:#C0E0F9;}
</style>
<rect x="1960.4" y="-7385.4" class="st0" width="1319.5" height="147"/>
<rect x="837.5" y="-4683.8" class="st0" width="1319.5" height="147"/>
<path class="st1" d="M30.6,9.1H19.8c-1.3,0-2.4,1.1-2.4,2.4v9.8c0,1.3,1.1,2.4,2.4,2.4h10.8c1.3,0,2.4-1.1,2.4-2.4v-9.8
	C33,10.2,31.9,9.1,30.6,9.1z"/>
<path class="st1" d="M42.1,15.5h-9H17.3h-9c-1.7,0-3.1,1.4-3.1,3.1v22.5c0,1.7,1.4,3.1,3.1,3.1h33.7c1.7,0,3.1-1.4,3.1-3.1V18.6
	C45.1,16.9,43.7,15.5,42.1,15.5z"/>
<circle class="st2" cx="23.6" cy="28.8" r="10.4"/>
<path class="st3" d="M15.2,13.5H5.4c-1.8,0-3.3,1.5-3.3,3.3v24.1c0,1.8,1.5,3.3,3.3,3.3h36.4c1.8,0,3.3-1.5,3.3-3.3V16.8
	c0-1.8-1.5-3.3-3.3-3.3h-9.7"/>
<path class="st3" d="M32.1,10.1V9c0-1.8-1.7-3.2-3.7-3.2h-9.5c-2,0-3.7,1.4-3.7,3.2v1.1"/>
<circle class="st4" cx="39.8" cy="18.8" r="1.6"/>
<circle class="st5" cx="25.2" cy="29.8" r="9.8"/>
<circle class="st3" cx="23.6" cy="28.8" r="11.1"/>
<path class="st3" d="M17.7,28.8c0,3.3,2.7,5.9,5.9,5.9s5.9-2.7,5.9-5.9s-2.7-5.9-5.9-5.9"/>
</svg>
