<?xml version="1.0" encoding="utf-8"?>
<!-- Generator: Adobe Illustrator 22.0.1, SVG Export Plug-In . SVG Version: 6.00 Build 0)  -->
<svg version="1.1" id="Calque_1" xmlns="http://www.w3.org/2000/svg" xmlns:xlink="http://www.w3.org/1999/xlink" x="0px" y="0px"
	 viewBox="0 0 48 48" style="enable-background:new 0 0 48 48;" xml:space="preserve">
<style type="text/css">
	.st0{fill:#F5F5F5;}
	.st1{fill:#4F9DCC;}
</style>
<rect x="1960.4" y="-7385.4" class="st0" width="1319.5" height="147"/>
<rect x="837.5" y="-4683.8" class="st0" width="1319.5" height="147"/>
<circle class="st1" cx="18.9" cy="41.1" r="3.9"/>
<circle class="st1" cx="36.6" cy="41.1" r="3.9"/>
<path class="st1" d="M45.8,13.9c-0.6-0.8-1.5-1.2-2.5-1.2H11l-1.7-7c-0.1-0.4-0.5-0.8-1-0.8H2.7c-0.6,0-1,0.4-1,1s0.4,1,1,1h4.9
	l5.8,23.9c0.6,2.3,2.7,3.9,5,3.9h19.9c2.4,0,4.5-1.6,5-4l3.1-14.1C46.7,15.6,46.4,14.6,45.8,13.9z M21.4,25.6
	c-1.3,0-2.4-1.1-2.4-2.4c0-1.3,1.1-2.4,2.4-2.4s2.4,1.1,2.4,2.4C23.8,24.5,22.7,25.6,21.4,25.6z M28.7,25.6c-1.3,0-2.4-1.1-2.4-2.4
	c0-1.3,1.1-2.4,2.4-2.4c1.3,0,2.4,1.1,2.4,2.4C31,24.5,30,25.6,28.7,25.6z M35.9,25.6c-1.3,0-2.4-1.1-2.4-2.4c0-1.3,1.1-2.4,2.4-2.4
	c1.3,0,2.4,1.1,2.4,2.4C38.3,24.5,37.2,25.6,35.9,25.6z"/>
</svg>
