<?xml version="1.0" encoding="utf-8"?>
<!-- Generator: Adobe Illustrator 22.0.1, SVG Export Plug-In . SVG Version: 6.00 Build 0)  -->
<svg version="1.1" id="Calque_1" xmlns="http://www.w3.org/2000/svg" xmlns:xlink="http://www.w3.org/1999/xlink" x="0px" y="0px"
	 viewBox="0 0 40 40" style="enable-background:new 0 0 40 40;" xml:space="preserve">
<style type="text/css">
	.st0{fill:#F5F5F5;}
	.st1{fill:#F7B5C5;}
	.st2{fill:none;stroke:#646666;stroke-width:2;stroke-linecap:round;stroke-linejoin:round;stroke-miterlimit:10;}
</style>
<rect x="1956.4" y="-7389.4" class="st0" width="1319.5" height="147"/>
<rect x="833.5" y="-4687.8" class="st0" width="1319.5" height="147"/>
<g>
	<path class="st1" d="M37.7,17.4c-0.3-0.8-1-1.4-1.8-1.6L27,14.5l-3.9-8.1c-0.4-0.8-1.2-1.3-2-1.3c-0.9,0-1.7,0.5-2,1.3l-3.9,8.1
		l-8.8,1.3c-0.9,0.1-1.6,0.7-1.8,1.6c-0.3,0.8,0,1.8,0.6,2.4l6.4,6.3l-1.5,9c-0.1,0.9,0.2,1.7,0.9,2.3c0.7,0.5,1.6,0.6,2.4,0.2
		l7.9-4.2l7.9,4.2c0.3,0.2,0.7,0.3,1.1,0.3c0.5,0,0.9-0.1,1.3-0.4c0.7-0.5,1-1.4,0.9-2.3l-1.5-9l6.4-6.3
		C37.7,19.1,37.9,18.2,37.7,17.4z"/>
</g>
<g>
	<path class="st2" d="M39,15.9c-0.3-0.9-1.1-1.6-2.1-1.7l-8.8-1.3c-0.8-0.1-1.5-0.6-1.8-1.3l-3.8-7.8c-0.4-0.7-1-1.3-1.8-1.5
		c-1.2-0.3-2.4,0.3-2.9,1.4l-3.9,7.9c-0.3,0.7-1,1.2-1.8,1.3l-8.8,1.3c-1,0.1-1.8,0.8-2.1,1.7c-0.3,0.9-0.1,2,0.7,2.6l6.3,6.2
		C8.8,25.2,9,26,8.9,26.8l-1.5,8.6c-0.1,0.8,0,1.6,0.5,2.2c0.8,0.9,2.1,1.2,3.2,0.6l7.8-4.1c0.7-0.4,1.5-0.4,2.2,0l7.8,4.1
		c0.4,0.2,0.8,0.3,1.2,0.3c1,0,1.9-0.5,2.4-1.6c0.2-0.5,0.2-1,0.1-1.5l-1.5-8.7c-0.1-0.8,0.1-1.6,0.7-2.1l6.3-6.2
		C39,17.8,39.3,16.8,39,15.9z"/>
</g>
<path class="st2" d="M24,27.1c-0.8,1.3-2.3,2.2-4,2.2c-1.7,0-3.2-0.9-4-2.2"/>
<g>
	<path class="st2" d="M13.2,19.2c0.4-0.6,1.1-1,1.9-1c0.8,0,1.5,0.4,1.9,1"/>
	<path class="st2" d="M23.3,19.2c0.4-0.6,1.1-1,1.9-1c0.8,0,1.5,0.4,1.9,1"/>
</g>
</svg>
