<?xml version="1.0" encoding="utf-8"?>
<!-- Generator: Adobe Illustrator 22.0.1, SVG Export Plug-In . SVG Version: 6.00 Build 0)  -->
<svg version="1.1" id="Calque_1" xmlns="http://www.w3.org/2000/svg" xmlns:xlink="http://www.w3.org/1999/xlink" x="0px" y="0px"
	 viewBox="0 0 24 24" style="enable-background:new 0 0 24 24;" xml:space="preserve">
<style type="text/css">
	.st0{fill:#F5F5F5;}
	.st1{fill:none;stroke:#CCCCCC;stroke-miterlimit:10;}
	.st2{fill:none;stroke:#CCCCCC;stroke-linecap:round;stroke-linejoin:round;stroke-miterlimit:10;}
</style>
<rect x="1948.4" y="-7397.4" class="st0" width="1319.5" height="147"/>
<rect x="825.5" y="-4695.8" class="st0" width="1319.5" height="147"/>
<g>
	<path class="st1" d="M11.3,3.5c0,0-0.5,4-2.7,6.1c-0.5,0.4-1.1,0.7-1.7,0.7l-0.6,0c-1.7,0-3.1,1.4-3.1,3.1v6.1
		c0,1.7,1.4,3.1,3.1,3.1h9c1.7,0,3.4-0.9,4.4-2.3c0.9-1.4,2-3.4,2.9-6.3c0.4-1.5-0.7-3-2.3-3l-4.9,0c-0.3,0-0.5-0.3-0.4-0.5
		c0.5-1.1,1.4-3.9,0.8-6.5c-0.3-1.2-1.2-2.2-2.4-2.4C12.5,1.5,11.5,1.8,11.3,3.5z"/>
	<line class="st2" x1="0.8" y1="12.1" x2="0.8" y2="20.9"/>
</g>
</svg>
