<?xml version="1.0" encoding="utf-8"?>
<!-- Generator: Adobe Illustrator 22.0.1, SVG Export Plug-In . SVG Version: 6.00 Build 0)  -->
<svg version="1.1" id="Calque_1" xmlns="http://www.w3.org/2000/svg" xmlns:xlink="http://www.w3.org/1999/xlink" x="0px" y="0px"
	 viewBox="0 0 24 24" style="enable-background:new 0 0 24 24;" xml:space="preserve">
<style type="text/css">
	.st0{fill:#F5F5F5;}
	.st1{fill:none;stroke:#CCCCCC;stroke-miterlimit:10;}
	.st2{fill:none;stroke:#CCCCCC;stroke-linecap:round;stroke-linejoin:round;stroke-miterlimit:10;}
</style>
<rect x="1948.4" y="-7397.4" class="st0" width="1319.5" height="147"/>
<rect x="825.5" y="-4695.8" class="st0" width="1319.5" height="147"/>
<g>
	<path class="st1" d="M17,2.2l5.4,5.4c1.4,1.4,1.4,3.7,0,5.1l-7.5,7.5c-1.4,1.4-3.7,1.4-5.1,0l-5.4-5.4C3,13.4,3,11.1,4.4,9.7
		l7.5-7.5C13.3,0.8,15.5,0.8,17,2.2z"/>
	<path class="st1" d="M3.8,14.2l6.7,6.7l-0.7,0.7c-0.9,0.9-2.5,0.9-3.4,0L3,18.3c-0.9-0.9-0.9-2.5,0-3.4L3.8,14.2z"/>
	<path class="st1" d="M4.6,19.9l2,2l-3,1.1l-0.8,0.3c-0.9,0.3-1.8-0.5-1.4-1.4L1.6,21l1.1-3L4.6,19.9z"/>
	<line class="st2" x1="11.6" y1="4.3" x2="16.4" y2="9"/>
	<line class="st2" x1="9.1" y1="6.8" x2="12.2" y2="10"/>
	<g>
		<line class="st2" x1="6.5" y1="9.3" x2="7.8" y2="10.6"/>
		<line class="st2" x1="9" y1="11.8" x2="12.2" y2="15"/>
	</g>
</g>
</svg>
