<?xml version="1.0" encoding="utf-8"?>
<!-- Generator: Adobe Illustrator 22.0.1, SVG Export Plug-In . SVG Version: 6.00 Build 0)  -->
<svg version="1.1" id="Calque_1" xmlns="http://www.w3.org/2000/svg" xmlns:xlink="http://www.w3.org/1999/xlink" x="0px" y="0px"
	 viewBox="0 0 48 48" style="enable-background:new 0 0 48 48;" xml:space="preserve">
<style type="text/css">
	.st0{fill:#F5F5F5;}
	.st1{fill:none;stroke:#5D616A;stroke-width:2;stroke-miterlimit:10;}
</style>
<rect x="1960.4" y="-7385.4" class="st0" width="1319.5" height="147"/>
<rect x="837.5" y="-4683.8" class="st0" width="1319.5" height="147"/>
<path class="st1" d="M45.4,23.7L24.9,3.1c-0.6-0.6-1.6-0.6-2.2,0L2.1,23.7c-1,1-0.3,2.7,1.1,2.7h4.9v16.8c0,1.7,1.4,3.1,3.1,3.1h7.4
	c0.9,0,1.6-0.7,1.6-1.6v-8c0-1,0.8-1.8,1.8-1.8h3.6c1,0,1.8,0.8,1.8,1.8v8c0,0.9,0.7,1.6,1.6,1.6h7.4c1.7,0,3.1-1.4,3.1-3.1V26.4
	h4.9C45.7,26.4,46.4,24.7,45.4,23.7z"/>
</svg>
