<?xml version="1.0" encoding="utf-8"?>
<!-- Generator: Adobe Illustrator 22.0.1, SVG Export Plug-In . SVG Version: 6.00 Build 0)  -->
<svg version="1.1" id="Calque_1" xmlns="http://www.w3.org/2000/svg" xmlns:xlink="http://www.w3.org/1999/xlink" x="0px" y="0px"
	 viewBox="0 0 48 48" style="enable-background:new 0 0 48 48;" xml:space="preserve">
<style type="text/css">
	.st0{fill:#F5F5F5;}
	.st1{fill:#4F9DCC;}
</style>
<rect x="1960.4" y="-7385.4" class="st0" width="1319.5" height="147"/>
<rect x="837.5" y="-4683.8" class="st0" width="1319.5" height="147"/>
<path class="st1" d="M46.4,23.5L25.1,2.3c-0.6-0.6-1.7-0.6-2.3,0L1.6,23.5c-1,1-0.3,2.8,1.2,2.8h5v17.3c0,1.8,1.5,3.2,3.2,3.2h7.6
	c0.9,0,1.6-0.7,1.6-1.6v-8.3c0-1,0.8-1.9,1.9-1.9h3.7c1,0,1.9,0.8,1.9,1.9v8.3c0,0.9,0.7,1.6,1.6,1.6h7.6c1.8,0,3.2-1.5,3.2-3.2
	V26.3h5C46.7,26.3,47.4,24.5,46.4,23.5z"/>
</svg>
