<?xml version="1.0" encoding="utf-8"?>
<!-- Generator: Adobe Illustrator 22.0.1, SVG Export Plug-In . SVG Version: 6.00 Build 0)  -->
<svg version="1.1" id="Calque_1" xmlns="http://www.w3.org/2000/svg" xmlns:xlink="http://www.w3.org/1999/xlink" x="0px" y="0px"
	 viewBox="0 0 40 40" style="enable-background:new 0 0 40 40;" xml:space="preserve">
<style type="text/css">
	.st0{fill:#F5F5F5;}
	.st1{fill:#BAE8E7;}
	.st2{fill:none;stroke:#646666;stroke-width:2;stroke-linecap:round;stroke-linejoin:round;stroke-miterlimit:10;}
</style>
<rect x="1956.4" y="-7389.4" class="st0" width="1319.5" height="147"/>
<rect x="833.5" y="-4687.8" class="st0" width="1319.5" height="147"/>
<path class="st1" d="M38.3,22.4c0-10-8.7-18-18.9-16.8c-7.8,0.9-14,7.1-14.9,14.8C4,24.7,5.2,28.8,7.4,32c1,1.4,1.6,3.1,1.6,4.9v2.5
	h12.4v0C30.7,39.3,38.3,31.7,38.3,22.4z"/>
<g>
	<g>
		<circle class="st2" cx="11.2" cy="20.9" r="2.3"/>
		<circle class="st2" cx="19.9" cy="20.9" r="2.3"/>
		<circle class="st2" cx="28.6" cy="20.9" r="2.3"/>
	</g>
	<path class="st2" d="M38.3,20.9c0-10.8-9.4-19.5-20.5-18.3C9.4,3.6,2.6,10.3,1.6,18.8c-0.5,4.7,0.7,9.1,3.1,12.6
		c1.1,1.6,1.7,3.4,1.7,5.3v2.7h13.5v0C30.1,39.3,38.3,31.1,38.3,20.9z"/>
</g>
</svg>
