<?xml version="1.0" encoding="utf-8"?>
<!-- Generator: Adobe Illustrator 22.0.1, SVG Export Plug-In . SVG Version: 6.00 Build 0)  -->
<svg version="1.1" id="Calque_1" xmlns="http://www.w3.org/2000/svg" xmlns:xlink="http://www.w3.org/1999/xlink" x="0px" y="0px"
	 viewBox="0 0 48 48" style="enable-background:new 0 0 48 48;" xml:space="preserve">
<style type="text/css">
	.st0{fill:#F5F5F5;}
	.st1{fill:#4F9DCC;}
</style>
<rect x="1960.4" y="-7385.4" class="st0" width="1319.5" height="147"/>
<rect x="837.5" y="-4683.8" class="st0" width="1319.5" height="147"/>
<path class="st1" d="M24,3.5c-11.8,0-21.4,9.6-21.4,21.4c0,11.8,9.6,21.4,21.4,21.4s21.4-9.6,21.4-21.4C45.3,13.1,35.8,3.5,24,3.5z
	 M31.2,17.3c1.4,0,2.6,1.2,2.6,2.6c0,1.4-1.2,2.6-2.6,2.6c-1.4,0-2.6-1.2-2.6-2.6C28.7,18.5,29.8,17.3,31.2,17.3z M16.7,17.3
	c1.4,0,2.6,1.2,2.6,2.6c0,1.4-1.2,2.6-2.6,2.6c-1.4,0-2.6-1.2-2.6-2.6C14.1,18.5,15.3,17.3,16.7,17.3z M34.9,33.6
	C32.3,37,28.3,39,24,39c-4.3,0-8.3-2-11-5.5c-0.5-0.6-0.4-1.6,0.3-2c0.6-0.5,1.6-0.4,2,0.3c2.1,2.7,5.2,4.3,8.6,4.3s6.6-1.6,8.6-4.3
	c0.5-0.6,1.4-0.8,2-0.3C35.3,32,35.4,32.9,34.9,33.6z"/>
</svg>
