<?xml version="1.0" encoding="utf-8"?>
<!-- Generator: Adobe Illustrator 22.0.1, SVG Export Plug-In . SVG Version: 6.00 Build 0)  -->
<svg version="1.1" id="Calque_1" xmlns="http://www.w3.org/2000/svg" xmlns:xlink="http://www.w3.org/1999/xlink" x="0px" y="0px"
	 viewBox="0 0 40 40" style="enable-background:new 0 0 40 40;" xml:space="preserve">
<style type="text/css">
	.st0{fill:#F5F5F5;}
	.st1{fill:#EFE8D5;}
	.st2{fill:none;stroke:#646666;stroke-width:2;stroke-linecap:round;stroke-linejoin:round;stroke-miterlimit:10;}
</style>
<rect x="1956.4" y="-7389.4" class="st0" width="1319.5" height="147"/>
<rect x="833.5" y="-4687.8" class="st0" width="1319.5" height="147"/>
<path class="st1" d="M33.2,38.5H10.1c-2,0-3.6-1.6-3.6-3.6V8.1c0-2,1.6-3.6,3.6-3.6h23.1c2,0,3.6,1.6,3.6,3.6v26.8
	C36.8,36.9,35.2,38.5,33.2,38.5z"/>
<path class="st2" d="M33.2,38.5H6.8c-2,0-3.6-1.6-3.6-3.6V5.1c0-2,1.6-3.6,3.6-3.6h26.5c2,0,3.6,1.6,3.6,3.6v29.8
	C36.8,36.9,35.2,38.5,33.2,38.5z"/>
<g>
	<line class="st2" x1="10.7" y1="9.1" x2="30" y2="9.1"/>
	<line class="st2" x1="10.7" y1="30.9" x2="30" y2="30.9"/>
	<g>
		<line class="st2" x1="10" y1="16.4" x2="13" y2="16.4"/>
		<line class="st2" x1="16.8" y1="16.4" x2="30" y2="16.4"/>
	</g>
	<g>
		<line class="st2" x1="10" y1="23.6" x2="13" y2="23.6"/>
		<line class="st2" x1="16.8" y1="23.6" x2="30" y2="23.6"/>
	</g>
</g>
</svg>
