<?xml version="1.0" encoding="utf-8"?>
<!-- Generator: Adobe Illustrator 22.0.1, SVG Export Plug-In . SVG Version: 6.00 Build 0)  -->
<svg version="1.1" id="Calque_1" xmlns="http://www.w3.org/2000/svg" xmlns:xlink="http://www.w3.org/1999/xlink" x="0px" y="0px"
	 viewBox="0 0 24 24" style="enable-background:new 0 0 24 24;" xml:space="preserve">
<style type="text/css">
	.st0{fill:#F5F5F5;}
	.st1{fill:none;stroke:#CCCCCC;stroke-miterlimit:10;}
	.st2{fill:#CCCCCC;}
</style>
<rect x="1948.4" y="-7397.4" class="st0" width="1319.5" height="147"/>
<rect x="825.5" y="-4695.8" class="st0" width="1319.5" height="147"/>
<path class="st1" d="M16.8,1.1H6.6c-2.8,0-5.1,2.3-5.1,5.1v8.5c0,2.8,2.3,5.1,5.1,5.1h1.2c0.6,0,1.2,0.3,1.6,0.8l1.5,2.1
	c0.4,0.5,1.1,0.5,1.5,0l1.5-2.1c0.4-0.5,1-0.8,1.6-0.8h1.2c2.8,0,5.1-2.3,5.1-5.1V6.2C21.9,3.3,19.6,1.1,16.8,1.1z"/>
<g>
	<circle class="st2" cx="6.7" cy="11" r="1.4"/>
	<circle class="st2" cx="11.7" cy="11" r="1.4"/>
	<circle class="st2" cx="16.7" cy="11" r="1.4"/>
</g>
</svg>
