<?xml version="1.0" encoding="utf-8"?>
<!-- Generator: Adobe Illustrator 22.0.1, SVG Export Plug-In . SVG Version: 6.00 Build 0)  -->
<svg version="1.1" id="Calque_1" xmlns="http://www.w3.org/2000/svg" xmlns:xlink="http://www.w3.org/1999/xlink" x="0px" y="0px"
	 viewBox="0 0 40 40" style="enable-background:new 0 0 40 40;" xml:space="preserve">
<style type="text/css">
	.st0{fill:#F5F5F5;}
	.st1{fill:#F4D4AE;}
	.st2{fill:none;stroke:#646666;stroke-width:2;stroke-linecap:round;stroke-linejoin:round;stroke-miterlimit:10;}
</style>
<rect x="1956.4" y="-7389.4" class="st0" width="1319.5" height="147"/>
<rect x="833.5" y="-4687.8" class="st0" width="1319.5" height="147"/>
<path class="st1" d="M34.1,21.8c0-1.8,1-3.5,2.6-4.4c0.5-0.3,0.9-0.8,0.9-1.4v-3.5c0-1.6-1.4-2.9-3-2.9H6.6c-1.7,0-3,1.3-3,2.9v4
	c0,0.5,0.2,1,0.7,1.3c1.2,0.9,2.1,2.4,2.1,4c0,1.6-0.8,3.1-2.1,4c-0.4,0.3-0.7,0.8-0.7,1.3v4c0,1.6,1.4,2.9,3,2.9h27.9
	c1.7,0,3-1.3,3-2.9v-3.5c0-0.6-0.3-1.1-0.9-1.4C35.1,25.3,34.1,23.7,34.1,21.8z"/>
<path class="st2" d="M34.6,20.8c0-2.1,1.1-4,2.8-5.1c0.6-0.4,1-1,1-1.7V10c0-1.8-1.5-3.3-3.3-3.3H4.3C2.5,6.7,1,8.1,1,10v4.7
	c0,0.6,0.3,1.1,0.7,1.5C3.1,17.2,4,18.9,4,20.8c0,1.9-0.9,3.6-2.2,4.6C1.3,25.8,1,26.3,1,26.9v4.7c0,1.8,1.5,3.3,3.3,3.3h30.8
	c1.8,0,3.3-1.5,3.3-3.3v-4.1c0-0.7-0.4-1.3-1-1.7C35.8,24.8,34.6,22.9,34.6,20.8z"/>
<g>
	<line class="st2" x1="15.5" y1="13.5" x2="18.1" y2="16.1"/>
	<line class="st2" x1="23.9" y1="13.5" x2="21.7" y2="15.7"/>
</g>
<line class="st2" x1="14.2" y1="18.4" x2="25.2" y2="18.4"/>
<line class="st2" x1="19.7" y1="19.8" x2="19.7" y2="27.6"/>
<line class="st2" x1="18.8" y1="22.7" x2="25.2" y2="22.7"/>
<line class="st2" x1="14.2" y1="22.7" x2="16.1" y2="22.7"/>
</svg>
