<?xml version="1.0" encoding="utf-8"?>
<!-- Generator: Adobe Illustrator 22.0.1, SVG Export Plug-In . SVG Version: 6.00 Build 0)  -->
<svg version="1.1" id="Calque_1" xmlns="http://www.w3.org/2000/svg" xmlns:xlink="http://www.w3.org/1999/xlink" x="0px" y="0px"
	 viewBox="0 0 40 40" style="enable-background:new 0 0 40 40;" xml:space="preserve">
<style type="text/css">
	.st0{fill:#F5F5F5;}
	.st1{fill:#FFE500;}
	.st2{fill:none;stroke:#CE6F15;stroke-width:2;stroke-linecap:round;stroke-linejoin:round;stroke-miterlimit:10;}
	.st3{fill:#FFAA54;}
	.st4{fill:none;stroke:#814415;stroke-width:2;stroke-linecap:round;stroke-linejoin:round;stroke-miterlimit:10;}
	.st5{fill:none;stroke:#9B482F;stroke-width:2;stroke-linecap:round;stroke-miterlimit:10;}
</style>
<rect x="1956.4" y="-7389.4" class="st0" width="1319.5" height="147"/>
<rect x="833.5" y="-4687.8" class="st0" width="1319.5" height="147"/>
<circle id="XMLID_7305_" class="st1" cx="20.2" cy="20" r="17.9"/>
<circle id="XMLID_7299_" class="st2" cx="20.2" cy="20" r="17.9"/>
<ellipse id="XMLID_7297_" class="st3" cx="30.9" cy="22.3" rx="2.2" ry="1.3"/>
<ellipse id="XMLID_7296_" class="st3" cx="9.4" cy="22.3" rx="2.2" ry="1.3"/>
<g>
	<path id="XMLID_7295_" class="st4" d="M8.8,18.3c0-1.3,1.1-2.4,2.4-2.4s2.4,1.1,2.4,2.4"/>
	<path id="XMLID_7294_" class="st4" d="M26.8,18.3c0-1.3,1.1-2.4,2.4-2.4c1.3,0,2.4,1.1,2.4,2.4"/>
</g>
<path class="st5" d="M10.6,26.1c1.9,3.3,5.4,5.6,9.5,5.6s7.7-2.3,9.5-5.6"/>
</svg>
