<?xml version="1.0" encoding="utf-8"?>
<!-- Generator: Adobe Illustrator 22.0.1, SVG Export Plug-In . SVG Version: 6.00 Build 0)  -->
<svg version="1.1" id="Calque_1" xmlns="http://www.w3.org/2000/svg" xmlns:xlink="http://www.w3.org/1999/xlink" x="0px" y="0px"
	 viewBox="0 0 40 40" style="enable-background:new 0 0 40 40;" xml:space="preserve">
<style type="text/css">
	.st0{fill:#F5F5F5;}
	.st1{fill:none;stroke:#CCCCCC;stroke-width:2;stroke-linecap:round;stroke-linejoin:round;stroke-miterlimit:10;}
	.st2{fill:#EEEEEE;}
	.st3{fill:#CCCCCC;}
</style>
<rect x="1956.4" y="-7389.4" class="st0" width="1319.5" height="147"/>
<rect x="833.5" y="-4687.8" class="st0" width="1319.5" height="147"/>
<g>
	<circle id="XMLID_3_" class="st1" cx="20.2" cy="20" r="17.9"/>
	<g>
		<ellipse id="XMLID_2_" class="st2" cx="30.9" cy="24.5" rx="2.2" ry="1.3"/>
		<ellipse id="XMLID_1_" class="st2" cx="9.4" cy="24.5" rx="2.2" ry="1.3"/>
	</g>
	<g>
		<path class="st3" d="M11.2,17.2c-1,0-1.8,0.8-1.8,1.8c0,1,0.8,1.8,1.8,1.8c1,0,1.8-0.8,1.8-1.8C13,18.1,12.2,17.2,11.2,17.2z"/>
		<path class="st3" d="M29.1,17.2c-1,0-1.8,0.8-1.8,1.8c0,1,0.8,1.8,1.8,1.8c1,0,1.8-0.8,1.8-1.8C31,18.1,30.2,17.2,29.1,17.2z"/>
	</g>
	<line class="st1" x1="17.7" y1="30.3" x2="22.7" y2="30.3"/>
</g>
</svg>
