<?xml version="1.0" encoding="utf-8"?>
<!-- Generator: Adobe Illustrator 22.0.1, SVG Export Plug-In . SVG Version: 6.00 Build 0)  -->
<svg version="1.1" id="Calque_1" xmlns="http://www.w3.org/2000/svg" xmlns:xlink="http://www.w3.org/1999/xlink" x="0px" y="0px"
	 viewBox="0 0 40 40" style="enable-background:new 0 0 40 40;" xml:space="preserve">
<style type="text/css">
	.st0{fill:#F5F5F5;}
	.st1{fill:none;stroke:#CCCCCC;stroke-width:2;stroke-miterlimit:10;}
</style>
<rect x="1956.4" y="-7389.4" class="st0" width="1319.5" height="147"/>
<rect x="833.5" y="-4687.8" class="st0" width="1319.5" height="147"/>
<g>
	<g>
		<path class="st1" d="M38.6,16.4c-0.3-0.9-1.1-1.6-2-1.7L28,13.5c-0.7-0.1-1.3-0.5-1.6-1.2l-3.8-7.7c-0.3-0.7-0.9-1.2-1.7-1.4
			c-1.2-0.3-2.4,0.3-2.9,1.3l-3.9,7.8c-0.3,0.6-0.9,1.1-1.6,1.2l-8.7,1.3c-0.9,0.1-1.7,0.8-2,1.7c-0.3,0.9,0,1.9,0.6,2.6l6.3,6.1
			c0.5,0.5,0.7,1.2,0.6,1.9l-1.5,8.5c-0.1,0.7,0,1.5,0.5,2.1c0.8,0.9,2.1,1.2,3.1,0.6l7.7-4.1c0.6-0.3,1.4-0.3,2,0l7.7,4.1
			c0.4,0.2,0.8,0.3,1.2,0.3c0.5,0,1-0.2,1.5-0.5c0.8-0.6,1.2-1.5,1-2.4L31.1,27c-0.1-0.7,0.1-1.4,0.6-1.9L38,19
			C38.7,18.3,38.9,17.3,38.6,16.4z"/>
	</g>
</g>
</svg>
