<?xml version="1.0" encoding="utf-8"?>
<!-- Generator: Adobe Illustrator 22.0.1, SVG Export Plug-In . SVG Version: 6.00 Build 0)  -->
<svg version="1.1" id="Calque_1" xmlns="http://www.w3.org/2000/svg" xmlns:xlink="http://www.w3.org/1999/xlink" x="0px" y="0px"
	 viewBox="0 0 48 48" style="enable-background:new 0 0 48 48;" xml:space="preserve">
<style type="text/css">
	.st0{fill:#F5F5F5;}
	.st1{fill:#F2DED3;}
	.st2{fill:#646666;}
	.st3{fill:none;stroke:#646666;stroke-width:2;stroke-linecap:round;stroke-linejoin:round;stroke-miterlimit:10;}
</style>
<rect x="1960.4" y="-7385.4" class="st0" width="1319.5" height="147"/>
<rect x="837.5" y="-4683.8" class="st0" width="1319.5" height="147"/>
<polygon class="st1" points="31.9,23.5 43.8,16.3 43.8,35.5 32.8,28.6 "/>
<path class="st1" d="M31.5,40.2H9.3c-2.6,0-4.7-2.1-4.7-4.7V17c0-2.6,2.1-4.7,4.7-4.7H27h4.5c0.7,0,1.3,0.1,1.8,0.4
	c1.3,0.5,2.3,1.6,2.7,2.9c0.1,0.4,0.2,0.9,0.2,1.4v1.7v16.7C36.2,38.1,34.1,40.2,31.5,40.2z"/>
<circle class="st2" cx="7.6" cy="14.7" r="1.6"/>
<path class="st3" d="M36.2,16.4v18.1c0,2.8-2.3,5.1-5.1,5.1h-24c-2.8,0-5.1-2.3-5.1-5.1v-20c0-2.8,2.3-5.1,5.1-5.1h19.1h2.9"/>
<path class="st3" d="M33.1,9.9c1.4,0.6,2.4,1.7,2.9,3.2"/>
<polyline class="st3" points="38.8,17 46,12.3 46,36.8 38.8,32.1 "/>
</svg>
