<?xml version="1.0" encoding="utf-8"?>
<!-- Generator: Adobe Illustrator 22.0.1, SVG Export Plug-In . SVG Version: 6.00 Build 0)  -->
<svg version="1.1" id="Calque_1" xmlns="http://www.w3.org/2000/svg" xmlns:xlink="http://www.w3.org/1999/xlink" x="0px" y="0px"
	 viewBox="0 0 40 40" style="enable-background:new 0 0 40 40;" xml:space="preserve">
<style type="text/css">
	.st0{fill:#F5F5F5;}
	.st1{fill:#C8BBF2;}
	.st2{fill:none;stroke:#646666;stroke-width:2;stroke-linecap:round;stroke-linejoin:round;stroke-miterlimit:10;}
</style>
<rect x="1956.4" y="-7389.4" class="st0" width="1319.5" height="147"/>
<rect x="833.5" y="-4687.8" class="st0" width="1319.5" height="147"/>
<path class="st1" d="M38,22.4c0-10-8.7-18-18.9-16.8c-7.8,0.9-14,7.1-14.9,14.8C3.7,24.7,4.9,28.8,7.1,32c1,1.4,1.6,3.1,1.6,4.9v2.5
	h12.4v0C30.5,39.3,38,31.7,38,22.4z"/>
<path class="st2" d="M38,20.9c0-10.8-9.4-19.5-20.5-18.3C9.1,3.6,2.3,10.4,1.4,18.8c-0.5,4.7,0.7,9.1,3.1,12.6
	c1.1,1.6,1.7,3.4,1.7,5.3v2.7h13.5v0C29.8,39.3,38,31.1,38,20.9z"/>
<line class="st2" x1="11" y1="15.2" x2="28.3" y2="15.2"/>
<g>
	<line class="st2" x1="11" y1="21.4" x2="20.7" y2="21.4"/>
	<line class="st2" x1="24.8" y1="21.4" x2="28.3" y2="21.4"/>
</g>
<g>
	<line class="st2" x1="11" y1="27.7" x2="14.7" y2="27.7"/>
	<line class="st2" x1="18.8" y1="27.7" x2="28.3" y2="27.7"/>
</g>
</svg>
