<?xml version="1.0" encoding="utf-8"?>
<!-- Generator: Adobe Illustrator 22.0.1, SVG Export Plug-In . SVG Version: 6.00 Build 0)  -->
<svg version="1.1" id="Calque_1" xmlns="http://www.w3.org/2000/svg" xmlns:xlink="http://www.w3.org/1999/xlink" x="0px" y="0px"
	 viewBox="0 0 40 40" style="enable-background:new 0 0 40 40;" xml:space="preserve">
<style type="text/css">
	.st0{fill:#F5F5F5;}
	.st1{fill:#F2C7CF;}
	.st2{fill:#EFBFE4;}
	.st3{fill:none;stroke:#646666;stroke-width:2;stroke-linecap:round;stroke-linejoin:round;stroke-miterlimit:10;}
</style>
<rect x="1956.4" y="-7389.4" class="st0" width="1319.5" height="147"/>
<rect x="833.5" y="-4687.8" class="st0" width="1319.5" height="147"/>
<path class="st1" d="M33,26.6h-24c-1.5,0-2.7-1.2-2.7-2.7v-8.7c0-1.5,1.2-2.7,2.7-2.7h24c1.5,0,2.7,1.2,2.7,2.7v8.7
	C35.8,25.4,34.5,26.6,33,26.6z"/>
<path class="st2" d="M30.6,36.5H11.5C10.1,36.5,9,35.4,9,34v-7.4h24.1V34C33.1,35.4,32,36.5,30.6,36.5z"/>
<path class="st3" d="M33.9,26.7H6.1c-1.5,0-2.7-1.2-2.7-2.7v-11c0-1.5,1.2-2.7,2.7-2.7H34c1.5,0,2.7,1.2,2.7,2.7v10.9
	C36.7,25.5,35.5,26.7,33.9,26.7z"/>
<path class="st3" d="M31.1,38.8H8.8c-1.4,0-2.5-1.1-2.5-2.5v-9.5h27.5v9.5C33.7,37.7,32.5,38.8,31.1,38.8z"/>
<line class="st3" x1="20" y1="10.2" x2="20" y2="17.4"/>
<line class="st3" x1="20" y1="21.5" x2="20" y2="26.6"/>
<g>
	<path class="st3" d="M20.5,10c0-0.3,0.2-0.6,0.4-0.8l6.6-6.6c0.5-0.5,1.3-0.5,1.9,0l1.6,1.6c0.5,0.5,0.5,1.3,0,1.9l-4,4"/>
	<path class="st3" d="M19.5,10c0-0.3-0.2-0.6-0.4-0.8l-6.6-6.6c-0.5-0.5-1.3-0.5-1.9,0L9,4.2C8.4,4.7,8.4,5.5,9,6.1l4,4"/>
</g>
</svg>
