<?xml version="1.0" encoding="utf-8"?>
<!-- Generator: Adobe Illustrator 22.0.1, SVG Export Plug-In . SVG Version: 6.00 Build 0)  -->
<svg version="1.1" id="Calque_1" xmlns="http://www.w3.org/2000/svg" xmlns:xlink="http://www.w3.org/1999/xlink" x="0px" y="0px"
	 viewBox="0 0 40 40" style="enable-background:new 0 0 40 40;" xml:space="preserve">
<style type="text/css">
	.st0{fill:#F5F5F5;}
	.st1{fill:#FCE0D2;}
	.st2{fill:none;stroke:#646666;stroke-width:2;stroke-linecap:round;stroke-linejoin:round;stroke-miterlimit:10;}
	.st3{fill:none;stroke:#646666;stroke-width:2;stroke-miterlimit:10;}
	.st4{fill:#DDD4D0;}
</style>
<rect x="1956.4" y="-7389.4" class="st0" width="1319.5" height="147"/>
<rect x="833.5" y="-4687.8" class="st0" width="1319.5" height="147"/>
<path class="st1" d="M4,9v21.7c0,1.2,1,2,2.1,2h0.2h11h7.7h11h0.5c1.2,0,2.1-0.9,2.1-2V20c0-1.4-0.9-2.5-2.2-2.9l-11-3.7
	c-0.6-0.2-1-0.8-1-1.4V9c0-1.2-1-2-2.1-2H6.2C5,7,4,7.8,4,9z"/>
<line class="st2" x1="19.5" y1="7" x2="19.5" y2="10.4"/>
<line class="st2" x1="22.8" y1="14.9" x2="34" y2="19"/>
<path class="st3" d="M24.3,32.4H36h0.6c1.3,0,2.3-1.1,2.3-2.3V18c0-1.5-1-2.8-2.3-3.3l-11.7-4.2c-0.7-0.2-1.1-0.9-1.1-1.6V5.6
	c0-1.3-1.1-2.3-2.3-2.3H4.2c-1.3,0-2.3,1.1-2.3,2.3v24.5c0,1.3,1.1,2.3,2.3,2.3h0.2h11.7H24.3z"/>
<circle class="st4" cx="10.3" cy="32.4" r="5.4"/>
<circle class="st4" cx="30.1" cy="32.4" r="5.4"/>
<circle class="st3" cx="10.3" cy="32.4" r="5.8"/>
<circle class="st3" cx="30.1" cy="32.4" r="5.8"/>
</svg>
