<?xml version="1.0" encoding="utf-8"?>
<!-- Generator: Adobe Illustrator 22.0.1, SVG Export Plug-In . SVG Version: 6.00 Build 0)  -->
<svg version="1.1" id="Calque_1" xmlns="http://www.w3.org/2000/svg" xmlns:xlink="http://www.w3.org/1999/xlink" x="0px" y="0px"
	 viewBox="0 0 40 40" style="enable-background:new 0 0 40 40;" xml:space="preserve">
<style type="text/css">
	.st0{fill:#F5F5F5;}
	.st1{fill:#BCB7B3;}
	.st2{fill:none;stroke:#646666;stroke-width:2;stroke-linecap:round;stroke-linejoin:round;stroke-miterlimit:10;}
</style>
<rect x="1956.4" y="-7389.4" class="st0" width="1319.5" height="147"/>
<rect x="833.5" y="-4687.8" class="st0" width="1319.5" height="147"/>
<polygon class="st1" points="12.6,8.4 33.7,8.9 32,4.3 28.3,2.6 16.3,5.9 11.6,8 "/>
<path class="st1" d="M33.2,39.4H10.1c-2.3,0-4.2-1.9-4.2-4.2V16.8c0-2.3,1.9-4.2,4.2-4.2h23.2c2.3,0,4.2,1.9,4.2,4.2v18.4
	C37.4,37.5,35.5,39.4,33.2,39.4z"/>
<path class="st2" d="M33.3,38.4H6.8c-2.3,0-4.2-1.9-4.2-4.2V13c0-2.3,1.9-4.2,4.2-4.2h26.5c2.3,0,4.2,1.9,4.2,4.2v21.2
	C37.5,36.5,35.6,38.4,33.3,38.4z"/>
<path class="st2" d="M5.9,8.9l21.9-6.3c2-0.6,4.1,0.6,4.6,2.6l1,3.6"/>
<path class="st2" d="M32.8,29.2h4.7V19h-9.7c-1.6,0-2.9,1.3-2.9,2.9v4.3c0,1.6,1.3,2.9,2.9,2.9h1.6"/>
<line class="st2" x1="30.5" y1="24.1" x2="31.6" y2="24.1"/>
</svg>
